<?xml version="1.0" encoding="utf-8"?>
<!-- Generator: Adobe Illustrator 24.0.2, SVG Export Plug-In . SVG Version: 6.00 Build 0)  -->
<svg version="1.1" id="Layer_1" focusable="false" xmlns="http://www.w3.org/2000/svg" xmlns:xlink="http://www.w3.org/1999/xlink"
	 x="0px" y="0px" viewBox="0 0 640 512" style="enable-background:new 0 0 640 512;" xml:space="preserve">
<style type="text/css">
	.st0{fill:#FFFFFF;}
</style>
<path class="st0" d="M434.7,64h-85.9c-8,0-15.7,3-21.6,8.4l-98.3,90c-0.1,0.1-0.2,0.3-0.3,0.4c-16.6,15.6-16.3,40.5-2.1,56
	c12.7,13.9,39.4,17.6,56.1,2.7c0.1-0.1,0.3-0.1,0.4-0.2l79.9-73.2c6.5-5.9,16.7-5.5,22.6,1c6,6.5,5.5,16.6-1,22.6l-26.1,23.9
	L504,313.8c2.9,2.4,5.5,5,7.9,7.7V128l-54.6-54.6C451.4,67.4,443.2,64,434.7,64L434.7,64z M544,128.2v223.9c0,17.7,14.3,32,32,32h64
	V128.2H544z M592,352.1c-8.8,0-16-7.2-16-16s7.2-16,16-16s16,7.2,16,16S600.8,352.1,592,352.1z M0,384h64c17.7,0,32-14.3,32-32
	V128.2H0V384z M48,320.1c8.8,0,16,7.2,16,16s-7.2,16-16,16s-16-7.2-16-16C32,327.2,39.2,320.1,48,320.1z M483.9,338.7L334.6,217.5
	l-30,27.5c-29.7,27.1-75.2,24.5-101.7-4.4c-26.9-29.4-24.8-74.9,4.4-101.7L289.1,64h-83.8c-8.5,0-16.6,3.4-22.6,9.4L128,128v223.9
	h18.3l90.5,81.9c27.4,22.3,67.7,18.1,90-9.3l0.2-0.2l17.9,15.5c15.9,13,39.4,10.5,52.3-5.4l31.4-38.6l5.4,4.4
	c13.7,11.1,33.9,9.1,45-4.7l9.5-11.7C499.7,370,497.6,349.9,483.9,338.7L483.9,338.7z"/>
</svg>
